<svg width="109" height="93" viewBox="0 0 109 93" fill="none" xmlns="http://www.w3.org/2000/svg">
<path d="M82.6577 0L73.844 0.0149565H35.7172L35.6842 0.0299129C32.7902 0.0262572 29.8963 0.0203044 27.0025 0.0149565H10.91C7.95965 0.0149565 5.44534 0.96677 3.38363 2.8735C1.32203 4.78013 0.307482 7.03212 0.297169 9.62326L7.63559e-05 83.3917C-0.0102404 85.9827 1.02494 88.2198 3.08653 90.1265C5.14825 92.0332 7.65673 93 10.5964 93H98.1065C101.046 93 103.555 92.0332 105.616 90.1265C107.678 88.2198 108.693 85.9827 108.703 83.3917L109 9.62326C109.01 7.03212 107.975 4.78013 105.913 2.8735C103.852 0.96677 101.337 0.0149565 98.3871 0.0149565H91.1084C88.2914 0.0131525 85.4746 0.00172411 82.6577 0ZM10.91 7.67766H98.3871C98.9288 7.67766 99.4376 7.88196 99.8891 8.29128C100.34 8.7007 100.577 9.14707 100.566 9.63824L100.269 23.0779H8.43419L8.73129 9.63824C8.74201 9.14707 8.95659 8.7007 9.408 8.29128C9.85952 7.88196 10.3683 7.67766 10.91 7.67766ZM21.3082 10.3267C20.389 10.4414 19.6121 10.6926 18.981 11.075C18.2081 11.5377 17.8091 12.1112 17.8091 12.8111C17.8091 13.2929 17.9722 13.7453 18.2878 14.1431C18.3335 14.2004 18.6229 14.491 19.1625 15.0111C19.4735 15.3171 19.6412 15.5857 19.6412 15.8342C19.6412 16.2243 19.3906 16.5184 18.9149 16.7173C18.7 16.8052 18.2742 16.9203 17.611 17.0465C17.5424 17.058 17.4955 17.0793 17.4955 17.1213C17.4955 17.2399 17.6789 17.5699 18.0402 18.1091C18.4015 18.6445 18.6447 18.9173 18.7499 18.9173C18.7728 18.9173 18.7958 18.9061 18.8324 18.9023C19.8157 18.7685 20.6552 18.4639 21.3412 17.9744C22.1232 17.4199 22.5131 16.7453 22.5131 15.969C22.5131 15.5521 22.3426 15.1325 22.0179 14.7118C21.9905 14.6812 21.6909 14.3658 21.1101 13.754C20.7809 13.4136 20.615 13.1192 20.615 12.8859C20.615 12.6259 20.7634 12.4326 21.0606 12.2873C21.3076 12.1611 21.5896 12.0927 21.9189 12.0927C21.9646 12.0927 22.0301 12.0962 22.1169 12.1077C22.2038 12.1191 22.2784 12.1226 22.315 12.1226C22.3973 12.1226 22.4305 12.0978 22.4305 12.0328C22.4305 12.0175 22.4278 11.9959 22.414 11.973C21.9796 11.2425 21.7077 10.7405 21.5888 10.4614C21.5476 10.3696 21.4923 10.3267 21.4237 10.3267C21.3963 10.3267 21.3585 10.3229 21.3082 10.3267ZM61.8118 10.3267C60.8926 10.4414 60.1156 10.6926 59.4845 11.075C58.7117 11.5377 58.3292 12.1112 58.3292 12.8111C58.3292 13.2929 58.4923 13.7453 58.8078 14.1431C58.8536 14.2004 59.143 14.491 59.6826 15.0111C59.9936 15.3171 60.1447 15.5857 60.1447 15.8342C60.1447 16.2243 59.9106 16.5184 59.435 16.7173C59.2201 16.8052 58.7777 16.9203 58.1146 17.0465C58.046 17.058 58.0156 17.0793 58.0156 17.1213C58.0156 17.2399 58.199 17.5699 58.5603 18.1091C58.9215 18.6445 59.1483 18.9173 59.2535 18.9173C59.2763 18.9173 59.3159 18.9061 59.3525 18.9023C60.3357 18.7685 61.1588 18.4639 61.8448 17.9744C62.6268 17.4199 63.0166 16.7453 63.0166 15.969C63.0166 15.5521 62.8627 15.1325 62.538 14.7118C62.5106 14.6812 62.211 14.3658 61.6302 13.754C61.3009 13.4136 61.1351 13.1192 61.1351 12.8859C61.1351 12.6259 61.2834 12.4326 61.5807 12.2873C61.8277 12.1611 62.1097 12.0927 62.439 12.0927C62.4847 12.0927 62.5501 12.0962 62.637 12.1077C62.7239 12.1191 62.782 12.1226 62.8186 12.1226C62.9009 12.1226 62.9506 12.0978 62.9506 12.0328C62.9506 12.0175 62.9478 11.9959 62.9341 11.973C62.4997 11.2425 62.2113 10.7405 62.0924 10.4614C62.0512 10.3696 61.9959 10.3267 61.9273 10.3267C61.8999 10.3267 61.8621 10.3229 61.8118 10.3267ZM84.7374 10.3267C84.8426 10.3267 84.4306 10.3807 83.516 10.4763C83.0038 10.5108 82.6038 10.5247 82.3111 10.5362C82.238 10.5515 82.1956 10.6199 82.1956 10.7308C82.1956 11.0214 82.2103 11.4627 82.2286 12.0478C82.2469 12.6329 82.2616 13.0703 82.2616 13.3648C82.2616 13.4643 82.2368 13.5145 82.1956 13.5145C82.1682 13.5145 82.1276 13.4859 82.0636 13.4247C81.6794 13.0576 81.1366 12.8709 80.4461 12.8709C79.4674 12.8709 78.6951 13.1504 78.1188 13.724C77.5746 14.2632 77.2936 14.9556 77.2936 15.7893C77.2936 16.6116 77.582 17.2855 78.1353 17.8248C78.7161 18.3908 79.4811 18.6778 80.4461 18.6778C81.1869 18.6778 81.8007 18.4846 82.2946 18.0792C82.3358 18.0448 82.3827 18.0158 82.4102 18.0043C82.4422 18.0349 82.4551 18.0635 82.4597 18.0941L82.4927 18.5282C82.5293 18.6085 82.6584 18.6479 82.9053 18.6479C83.9526 18.6479 84.5562 18.6371 84.7209 18.618C84.7895 18.6103 84.8364 18.5852 84.8364 18.5431C84.8364 18.524 84.829 18.4811 84.8199 18.4084C84.7147 17.7392 84.6549 16.6205 84.6549 15.041C84.6549 14.085 84.6843 13.2314 84.7209 12.4818C84.7483 11.8202 84.7861 11.275 84.8364 10.8505C84.873 10.514 84.8859 10.3922 84.8859 10.4763C84.8859 10.3807 84.838 10.3267 84.7374 10.3267ZM49.8951 11.1648C49.7945 11.1648 49.73 11.3946 49.73 11.8383C49.73 11.8153 49.7447 12.0483 49.763 12.5417C49.7722 12.8553 49.7575 13.0848 49.73 13.2301C49.7163 13.3028 49.6306 13.346 49.4659 13.3499C49.1732 13.3575 49.0368 13.3931 49.0368 13.4696C49.0368 13.5499 49.0276 13.6793 49.0368 13.8437C49.0505 14.0082 49.0698 14.1226 49.0698 14.2029C49.0698 14.2641 49.0505 14.3611 49.0368 14.4873C49.0276 14.6135 49.0368 14.7105 49.0368 14.7716C49.0368 14.8749 49.1106 14.9213 49.2844 14.9213C49.3027 14.9213 49.3422 14.9251 49.3834 14.9213H49.4659C49.6992 14.9213 49.8125 15.0075 49.8125 15.1757C49.8125 15.4281 49.8024 15.8045 49.7795 16.3132C49.7567 16.818 49.7465 17.1982 49.7465 17.4506C49.7465 18.2958 50.4055 18.7078 51.7271 18.7078C52.4451 18.7078 53.1013 18.5752 53.6912 18.3037C53.8147 18.2463 53.8949 18.1996 53.9223 18.169C53.9498 18.1384 53.9553 18.0815 53.9553 17.9744C53.9553 17.8635 53.9728 17.6839 54.0048 17.4506C54.0414 17.2173 54.0709 17.0415 54.0709 16.9268C54.0709 16.8426 54.0184 16.8071 53.9223 16.8071C53.8354 16.8071 53.6751 16.821 53.4602 16.8669C53.2498 16.909 53.0959 16.9417 52.9815 16.9417C52.6202 16.9417 52.3788 16.8518 52.2553 16.6873C52.1684 16.5649 52.1233 16.35 52.1233 16.0288C52.1233 15.9408 52.1278 15.8083 52.1233 15.6247V15.2057C52.1233 15.0374 52.1537 14.9512 52.2223 14.9512H52.7339C52.8254 14.9512 52.9812 14.9586 53.1961 14.9662C53.411 14.97 53.5668 14.9812 53.6582 14.9812C53.7909 14.9812 53.8563 14.9417 53.8563 14.8614C53.8563 14.7696 53.8444 14.6333 53.8398 14.4573C53.8352 14.2814 53.8398 14.145 53.8398 14.0532C53.8398 13.9653 53.8499 13.8251 53.8728 13.6492C53.8957 13.4732 53.9058 13.348 53.9058 13.26C53.9058 13.2027 53.8579 13.1702 53.7573 13.1702C53.5926 13.1702 53.3392 13.1737 53.0145 13.1852C52.6898 13.1967 52.4484 13.2151 52.2883 13.2151C52.1557 13.2151 52.0903 13.1182 52.0903 12.9308C52.0903 12.774 52.1123 12.5371 52.1398 12.2274C52.1718 11.9176 52.1893 11.6919 52.1893 11.5389C52.1893 11.4816 52.1221 11.4418 52.0077 11.4342C51.5367 11.3883 51.1846 11.3562 50.9514 11.3294C50.8508 11.3217 50.6839 11.2893 50.4232 11.2396C50.1946 11.1937 50.0185 11.1648 49.8951 11.1648ZM64.5186 11.1648C64.418 11.1648 64.3701 11.3946 64.3701 11.8383C64.3701 11.8153 64.3848 12.0483 64.4031 12.5417C64.4122 12.8553 64.3975 13.0848 64.3701 13.2301C64.3563 13.3028 64.2706 13.346 64.106 13.3499C63.8133 13.3575 63.6603 13.3931 63.6603 13.4696C63.6603 13.5499 63.6677 13.6793 63.6768 13.8437C63.6906 14.0082 63.7099 14.1226 63.7099 14.2029C63.7099 14.2641 63.6906 14.3611 63.6768 14.4873C63.6677 14.6135 63.6603 14.7105 63.6603 14.7716C63.6603 14.8749 63.7506 14.9213 63.9244 14.9213C63.9427 14.9213 63.9823 14.9251 64.0235 14.9213H64.106C64.3392 14.9213 64.4526 15.0075 64.4526 15.1757C64.4526 15.4281 64.4425 15.8045 64.4196 16.3132C64.3967 16.818 64.3866 17.1982 64.3866 17.4506C64.3866 18.2958 65.0455 18.7078 66.3672 18.7078C67.0852 18.7078 67.7413 18.5752 68.3313 18.3037C68.4548 18.2463 68.5349 18.1996 68.5624 18.169C68.5898 18.1384 68.5954 18.0815 68.5954 17.9744C68.5954 17.8635 68.6129 17.6839 68.6449 17.4506C68.6815 17.2173 68.7109 17.0415 68.7109 16.9268C68.7109 16.8426 68.6584 16.8071 68.5624 16.8071C68.4755 16.8071 68.3152 16.821 68.1002 16.8669C67.8899 16.909 67.7359 16.9417 67.6216 16.9417C67.2603 16.9417 67.0188 16.8518 66.8953 16.6873C66.8085 16.5649 66.7633 16.35 66.7633 16.0288C66.7633 15.9408 66.7679 15.8083 66.7633 15.6247V15.2057C66.7633 15.0374 66.7937 14.9512 66.8623 14.9512H67.374C67.4655 14.9512 67.6212 14.9586 67.8361 14.9662C68.0511 14.97 68.2068 14.9812 68.2983 14.9812C68.4309 14.9812 68.4963 14.9417 68.4963 14.8614C68.4963 14.7696 68.4844 14.6333 68.4798 14.4573C68.4753 14.2814 68.4798 14.145 68.4798 14.0532C68.4798 13.9653 68.49 13.8251 68.5128 13.6492C68.5357 13.4732 68.5459 13.348 68.5459 13.26C68.5459 13.2027 68.4979 13.1702 68.3973 13.1702C68.2327 13.1702 67.9793 13.1737 67.6546 13.1852C67.3299 13.1967 67.0884 13.2151 66.9284 13.2151C66.7957 13.2151 66.7303 13.1182 66.7303 12.9308C66.7303 12.774 66.7524 12.5371 66.7798 12.2274C66.8118 11.9176 66.8293 11.6919 66.8293 11.5389C66.8293 11.4816 66.7621 11.4418 66.6478 11.4342C66.1767 11.3883 65.8247 11.3562 65.5914 11.3294C65.4908 11.3217 65.3074 11.2893 65.0468 11.2396C64.8181 11.1937 64.6421 11.1648 64.5186 11.1648ZM28.3559 12.9158C27.9443 12.9158 27.5527 12.9839 27.2005 13.1254C26.9627 13.2248 26.6383 13.4114 26.2267 13.6791C26.1673 13.7174 26.1239 13.7386 26.0782 13.7539C26.0462 13.7539 26.0332 13.6287 26.0287 13.3648C26.0241 13.0971 25.967 12.9607 25.8801 12.9607C25.7429 12.9607 25.5595 12.982 25.3354 13.0356C25.0199 13.1082 24.853 13.1476 24.8073 13.1553C24.7433 13.1629 24.5396 13.1884 24.1966 13.2152C23.9176 13.2381 23.7195 13.2705 23.6189 13.305C23.5549 13.3279 23.5199 13.3597 23.5199 13.4247C23.5199 13.4476 23.5272 13.4836 23.5364 13.5295C23.6461 14.3134 23.7014 15.0275 23.7014 15.6547C23.7014 15.9606 23.706 16.4197 23.7014 17.0315C23.6968 17.6396 23.6849 18.0875 23.6849 18.3935C23.6849 18.4891 23.6996 18.5539 23.7179 18.5731C23.7408 18.5922 23.8062 18.6103 23.916 18.618C24.2819 18.6409 24.6017 18.6479 24.8898 18.6479C25.3334 18.6479 25.6578 18.6333 25.8636 18.618C25.9779 18.6103 26.0507 18.596 26.0782 18.5731C26.1056 18.5501 26.1277 18.4891 26.1277 18.3935C26.1277 18.0493 26.1158 17.5442 26.1112 16.8519C26.1066 16.1597 26.1112 15.6285 26.1112 15.2805C26.1112 15.1237 26.2347 14.973 26.4908 14.8315C26.724 14.7015 26.9498 14.637 27.151 14.637C27.6495 14.637 27.8937 14.9132 27.8937 15.4601C27.8937 15.6054 27.9011 15.8168 27.9102 16.1036C27.9194 16.3905 27.9267 16.6057 27.9267 16.7472C27.9267 16.9308 27.9074 17.2108 27.8937 17.5703C27.88 17.9298 27.8772 18.1988 27.8772 18.3785C27.8772 18.5353 27.9472 18.618 28.0753 18.618H30.1549C30.2876 18.618 30.353 18.5496 30.353 18.4234C30.353 18.2398 30.3502 17.9636 30.3365 17.6003C30.3228 17.2331 30.3035 16.9569 30.3035 16.7771C30.3035 15.997 30.3182 15.5309 30.3365 15.3703C30.3594 15.1867 30.4727 15.0256 30.6831 14.8764C30.8981 14.7234 31.1119 14.637 31.3268 14.637C31.8161 14.637 32.0751 14.8703 32.1026 15.3254C32.1208 15.6084 32.1356 16.0779 32.1356 16.7472C32.1356 16.9231 32.1328 17.1886 32.1191 17.5404C32.1054 17.8884 32.0861 18.1577 32.0861 18.3336C32.0861 18.498 32.1634 18.595 32.3006 18.618C32.4378 18.6409 32.7825 18.6479 33.3404 18.6479C33.8801 18.6479 34.2266 18.6333 34.3638 18.618C34.501 18.6027 34.5618 18.5273 34.5618 18.3935C34.5618 18.1525 34.559 17.7978 34.5453 17.3159C34.5316 16.8302 34.5288 16.4643 34.5288 16.2234C34.5288 16.0207 34.5316 15.7158 34.5453 15.3104C34.559 14.9012 34.5618 14.6002 34.5618 14.3975C34.5618 13.908 34.348 13.5239 33.9181 13.2601C33.5386 13.0268 33.0528 12.9158 32.4492 12.9158C32.0467 12.9158 31.6201 13.0128 31.1948 13.2002C30.7695 13.3876 30.4469 13.6133 30.2045 13.8886C30.0947 13.5712 29.8487 13.3312 29.4782 13.1553C29.149 12.9985 28.7766 12.9158 28.3559 12.9158ZM38.8696 12.9158C37.8361 12.9158 37.0214 13.1956 36.4269 13.7539C35.8552 14.2932 35.5851 15.0107 35.5851 15.8941C35.5851 16.659 35.857 17.304 36.4104 17.8547C36.9957 18.4436 37.7303 18.7377 38.6221 18.7377C39.2074 18.7377 39.7604 18.5263 40.2726 18.0941C40.332 18.0444 40.3845 18.0196 40.4211 18.0043C40.4623 18.0082 40.4927 18.1118 40.5202 18.3336C40.5522 18.5516 40.6148 18.6629 40.7017 18.6629C41.4334 18.6629 42.0822 18.6524 42.6493 18.618C42.8094 18.6065 42.8804 18.5165 42.8804 18.3635C42.8804 18.0729 42.8555 17.6428 42.8144 17.0615C42.7732 16.4802 42.7649 16.0389 42.7649 15.7444C42.7649 14.9719 42.8331 14.2366 42.9794 13.5444C42.9931 13.4794 42.9959 13.44 42.9959 13.4247C42.9959 13.3864 42.9655 13.3578 42.8969 13.3349C42.7002 13.2814 42.3758 13.2168 41.9231 13.1403C41.4475 13.06 41.1185 13.0206 40.9493 13.0206C40.8761 13.0206 40.8226 13.1176 40.7677 13.305C40.7174 13.4885 40.6603 13.5743 40.6192 13.5743C40.6055 13.5743 40.6045 13.5635 40.5862 13.5444C40.17 13.1237 39.5876 12.9158 38.8696 12.9158ZM46.2474 12.9458C46.2246 12.9458 45.8477 13.0068 45.1251 13.1254C44.6403 13.1866 44.2708 13.2371 44.0192 13.2601C43.9506 13.2792 43.9202 13.3075 43.9202 13.3648C43.9202 13.3878 43.9276 13.4202 43.9367 13.4546C44.1334 14.0359 44.2338 14.7709 44.2338 15.6696C44.2338 15.9756 44.2219 16.4346 44.2173 17.0465C44.2127 17.6546 44.2173 18.1175 44.2173 18.4234C44.2173 18.5343 44.2975 18.6027 44.4484 18.618C44.709 18.6409 45.0537 18.6479 45.4882 18.6479C45.9409 18.6479 46.2755 18.6333 46.495 18.618C46.6459 18.6065 46.7096 18.5601 46.7096 18.4683C46.7096 18.3612 46.7114 18.1924 46.6931 17.9744C46.6748 17.7526 46.6601 17.5914 46.6601 17.4805C46.6601 17.3161 46.6527 17.0649 46.6436 16.7322C46.639 16.3957 46.6436 16.1484 46.6436 15.9839C46.6436 15.6818 46.7044 15.4847 46.8416 15.3853C46.9788 15.2858 47.2378 15.2356 47.6174 15.2356C47.6997 15.2356 47.8324 15.2391 47.997 15.2506C48.1662 15.2582 48.2897 15.2655 48.3766 15.2655C48.5733 15.2655 48.6737 15.1902 48.6737 15.041C48.6737 14.9684 48.6663 14.8177 48.6572 14.592C48.6526 14.4085 48.6572 14.254 48.6572 14.143C48.6618 14.0474 48.6793 13.8971 48.7067 13.6791C48.7342 13.4764 48.7397 13.326 48.7397 13.2151C48.7397 13.1234 48.6162 13.0655 48.3601 13.0655C47.9531 13.0655 47.5282 13.1771 47.0892 13.3798C46.6502 13.5786 46.464 13.6791 46.528 13.6791C46.4686 13.6791 46.4189 13.5459 46.396 13.3049C46.3731 13.064 46.3298 12.9458 46.2474 12.9458ZM69.9323 13.1553C69.7951 13.1553 69.702 13.223 69.6517 13.3798C69.4825 13.8846 69.4041 14.5732 69.4041 15.4451C69.4041 16.2521 69.4521 16.8764 69.5527 17.3009C69.7768 18.2149 70.5029 18.6629 71.7148 18.6629C72.1447 18.6629 72.6084 18.5338 73.1343 18.2737C73.6602 18.0137 73.8915 17.8846 73.8275 17.8846C73.8687 17.8846 73.9037 17.9781 73.9265 18.154L73.976 18.4982C73.9989 18.5785 74.0542 18.6215 74.1411 18.6329C74.3377 18.6559 74.6824 18.6629 75.1809 18.6629C75.7434 18.6629 76.113 18.6562 76.2868 18.618C76.4011 18.5912 76.4518 18.5267 76.4518 18.4234C76.4518 18.1519 76.4417 17.7319 76.4188 17.1812C76.3959 16.6305 76.3858 16.2144 76.3858 15.939C76.3858 15.656 76.4033 15.2329 76.4353 14.6669C76.4673 14.1009 76.4848 13.6778 76.4848 13.3948C76.4848 13.3336 76.4775 13.2907 76.4683 13.2601C76.4455 13.2027 76.3579 13.1703 76.2207 13.1703C75.9967 13.1703 75.6667 13.1741 75.2139 13.1703C74.7658 13.1664 74.4312 13.1553 74.2071 13.1553C74.0699 13.1553 73.987 13.1769 73.9595 13.2152C73.9367 13.2381 73.9265 13.3135 73.9265 13.4397C73.9265 15.218 73.9192 16.1866 73.91 16.3281C73.9009 16.4888 73.7847 16.6429 73.5469 16.7921C73.3137 16.9412 73.0879 17.0166 72.8867 17.0166C72.3699 17.0166 72.0778 16.7937 71.9954 16.373C71.9451 16.1283 71.9129 15.6765 71.9129 15.0111C71.9129 14.4757 71.9654 13.9448 72.0615 13.4247C72.0706 13.3712 72.078 13.3317 72.078 13.305C72.078 13.2055 72.0052 13.1553 71.8634 13.1553C71.653 13.1553 71.336 13.1591 70.9061 13.1553C70.4762 13.1515 70.1427 13.1553 69.9323 13.1553ZM85.8927 13.1553C85.7418 13.1553 85.6617 13.2055 85.6617 13.305C85.6617 13.4426 85.6708 13.6394 85.6617 13.9186C85.6525 14.1939 85.6452 14.4095 85.6452 14.5472C85.6452 15.2279 85.6581 15.6186 85.6947 15.7295C85.7587 15.9245 86.1062 16.3982 86.751 17.1363C87.373 17.8553 87.6918 18.2317 87.6918 18.2737C87.6918 18.7594 87.0486 19.0071 85.7772 19.0071C85.6995 19.0071 85.6617 19.0392 85.6617 19.1118C85.6617 19.1769 85.7215 19.3021 85.8267 19.501C85.8999 19.6386 85.9681 19.7862 86.0413 19.92C86.1328 20.1342 86.2129 20.317 86.2724 20.4738C86.341 20.512 86.4718 20.5336 86.6685 20.5336C87.9627 20.5336 88.6714 20.5012 88.7811 20.4438C88.8726 20.4018 89.2477 20.0111 89.92 19.2615C90.5282 18.5808 90.9125 18.1468 91.0589 17.9594C91.9918 16.7663 92.4922 16.0704 92.5608 15.8791C92.6157 15.7185 92.6433 15.2591 92.6433 14.5172C92.6433 13.8786 92.6083 13.4809 92.5443 13.305C92.5032 13.2055 92.4156 13.1553 92.2967 13.1553C92.0635 13.1553 91.7234 13.155 91.2569 13.1703C90.795 13.1855 90.4338 13.2002 90.2006 13.2002C90.1046 13.2002 90.0685 13.2323 90.0685 13.3049C90.0685 13.412 90.0787 13.5735 90.1016 13.7839C90.1244 13.9942 90.1346 14.1446 90.1346 14.2478C90.1346 14.6417 90.1143 15.0038 90.0685 15.3404C90.0502 15.4627 89.9222 15.7031 89.6889 16.0587C89.4374 16.4335 89.2494 16.6274 89.1443 16.6274C89.0208 16.6274 88.8245 16.4373 88.5501 16.0587C88.2894 15.6954 88.1512 15.4443 88.1374 15.3104C88.1191 15.1383 88.1209 14.8195 88.1209 14.3376C88.1209 14.2305 88.1237 14.0579 88.1374 13.8437C88.1512 13.6257 88.1539 13.4719 88.1539 13.3648C88.1539 13.2463 88.1179 13.1852 88.0219 13.1852C87.7887 13.1852 87.4247 13.1817 86.9491 13.1703C86.478 13.1588 86.126 13.1553 85.8927 13.1553ZM81.0072 14.607C81.3639 14.607 81.6635 14.7218 81.915 14.9512C82.1665 15.1769 82.2946 15.4423 82.2946 15.7444C82.2946 16.0542 82.1785 16.3232 81.9315 16.5526C81.6846 16.7821 81.3731 16.8968 81.0072 16.8968C80.6414 16.8968 80.3446 16.7821 80.116 16.5526C79.8919 16.3385 79.7859 16.0692 79.7859 15.7594C79.7859 15.442 79.8964 15.1769 80.116 14.9512C80.34 14.7218 80.6322 14.607 81.0072 14.607ZM39.2328 14.6519C39.626 14.6519 39.9312 14.767 40.1735 14.9812C40.4205 15.1915 40.5532 15.4493 40.5532 15.7744C40.5532 16.1033 40.4205 16.3834 40.1735 16.5975C39.9266 16.8079 39.6215 16.9118 39.2328 16.9118C38.8669 16.9118 38.5481 16.8044 38.292 16.5826C38.0359 16.3607 37.9123 16.0842 37.9123 15.7744C37.9123 15.4455 38.0331 15.1765 38.2755 14.9662C38.5178 14.7559 38.8395 14.6519 39.2328 14.6519ZM8.43419 30.7406H100.269V83.3767C100.269 83.868 100.043 84.3144 99.592 84.7237C99.1405 85.1331 98.6317 85.3373 98.09 85.3373H10.6129C10.0712 85.3373 9.56243 85.1331 9.1109 84.7237C8.6595 84.3144 8.43419 83.868 8.43419 83.3767V30.7406ZM26.8374 42.0999C25.3529 42.0999 24.0945 42.5836 23.0577 43.5517C22.021 44.5197 21.5063 45.6777 21.5063 47.0238C21.5063 48.3699 22.0397 49.511 23.1072 50.4511C24.175 51.391 25.4521 51.8579 26.9364 51.8579C28.4209 51.8579 29.6794 51.3742 30.7161 50.4062C31.7528 49.4381 32.2676 48.28 32.2676 46.934C32.2676 45.5879 31.7342 44.4468 30.6666 43.5068C29.5989 42.5667 28.3218 42.0999 26.8374 42.0999ZM54.3019 42.0999C52.8174 42.0999 51.559 42.5836 50.5223 43.5517C49.4855 44.5197 48.9708 45.6777 48.9708 47.0238C48.9708 48.3699 49.5042 49.511 50.5718 50.4511C51.6395 51.391 52.9166 51.8579 54.401 51.8579C55.8855 51.8579 57.1439 51.3742 58.1806 50.4062C59.2174 49.4381 59.7321 48.28 59.7321 46.934C59.7321 45.5879 59.1987 44.4468 58.1311 43.5068C57.0634 42.5667 55.7863 42.0999 54.3019 42.0999ZM81.7665 42.0999C80.282 42.0999 79.0235 42.5836 77.9868 43.5517C76.9501 44.5197 76.4353 45.6777 76.4353 47.0238C76.4353 48.3699 76.9687 49.511 78.0363 50.4511C79.104 51.391 80.3811 51.8579 81.8655 51.8579C83.35 51.8579 84.6084 51.3742 85.6452 50.4062C86.6819 49.4381 87.1966 48.28 87.1966 46.934C87.1966 45.5879 86.6632 44.4468 85.5957 43.5068C84.5279 42.5667 83.2508 42.0999 81.7665 42.0999ZM26.8374 64.5941C25.3529 64.5941 24.0945 65.0778 23.0577 66.0459C22.021 67.0139 21.5063 68.172 21.5063 69.518C21.5063 70.864 22.0397 72.0052 23.1072 72.9453C24.175 73.8853 25.4521 74.3521 26.9364 74.3521C28.4209 74.3521 29.6794 73.8684 30.7161 72.9004C31.7528 71.9323 32.2676 70.7742 32.2676 69.4282C32.2676 68.0822 31.7342 66.941 30.6666 66.001C29.5989 65.0609 28.3218 64.5941 26.8374 64.5941ZM54.3019 64.5941C52.8174 64.5941 51.559 65.0778 50.5223 66.0459C49.4855 67.0139 48.9708 68.172 48.9708 69.518C48.9708 70.864 49.5042 72.0052 50.5718 72.9453C51.6395 73.8853 52.9166 74.3521 54.401 74.3521C55.8855 74.3521 57.1439 73.8684 58.1806 72.9004C59.2174 71.9323 59.7321 70.7742 59.7321 69.4282C59.7321 68.0822 59.1987 66.941 58.1311 66.001C57.0634 65.0609 55.7863 64.5941 54.3019 64.5941ZM81.7665 64.5941C80.282 64.5941 79.0235 65.0778 77.9868 66.0459C76.9501 67.0139 76.4353 68.172 76.4353 69.518C76.4353 70.864 76.9687 72.0052 78.0363 72.9453C79.104 73.8853 80.3811 74.3521 81.8655 74.3521C83.35 74.3521 84.6084 73.8684 85.6452 72.9004C86.6819 71.9323 87.1966 70.7742 87.1966 69.4282C87.1966 68.0822 86.6632 66.941 85.5957 66.001C84.5279 65.0609 83.2508 64.5941 81.7665 64.5941Z" fill="#6C3CF5"/>
</svg>
