<svg width="157" height="132" viewBox="0 0 157 132" fill="none" xmlns="http://www.w3.org/2000/svg">
<g clip-path="url(#clip0_28_34)">
<path d="M78.4995 19.7227C74.0323 19.7227 70.2111 21.0577 67.0465 23.7188C63.8818 26.3798 62.3089 29.6181 62.3089 33.4383V36.4418C55.6624 39.0691 50.2225 43.014 45.9956 48.2883C44.3371 50.3578 43.2777 52.6126 42.2699 54.8754C41.8599 54.8257 41.4765 54.7567 41.0127 54.7723C40.8382 54.7781 40.6542 54.7939 40.4761 54.8109C39.6109 54.8936 38.5902 55.1184 37.5017 55.6359C36.5919 56.0685 35.7379 56.6627 34.9872 57.3762C34.3324 57.9986 33.7618 58.7077 33.3467 59.4516C33.1462 59.8108 32.9652 60.1845 32.8407 60.573C32.7178 60.9567 32.6299 61.3889 32.6261 61.8363C32.6223 62.2852 32.7109 62.8234 33.0094 63.3703C33.1648 63.655 33.3724 63.9389 33.6533 64.1953C33.9421 64.4589 34.2806 64.6768 34.6499 64.8398C35.0267 65.0062 35.4061 65.1084 35.7692 65.1621C36.1422 65.2173 36.5091 65.2189 36.8271 65.2008C37.494 65.1628 38.1019 65.0074 38.6056 64.8398C39.0913 64.6783 39.5192 64.4606 39.9548 64.2469C39.9174 64.8502 39.6482 65.3856 39.6482 66V106.76C39.6482 109.064 40.6154 111.028 42.5306 112.638C44.4457 114.248 46.7597 115.049 49.4913 115.049H107.508C110.239 115.049 112.553 114.248 114.468 112.638C115.973 111.374 116.415 109.716 116.738 108.023C116.897 108.07 117.061 108.104 117.228 108.127C118.25 107.603 119.391 106.801 120.525 105.51C121.359 104.559 122.172 103.374 122.916 101.913C124.146 99.5021 125.189 96.3824 125.922 92.516C126.568 89.1053 126.951 85.2191 127.01 81.0434C127.067 77.0251 126.818 72.849 126.259 68.7586C125.684 64.5555 124.801 60.5697 123.637 56.9895C122.342 53.0063 120.757 49.6888 118.976 47.0379C117.934 45.486 116.847 44.1958 115.741 43.132C114.354 41.7983 112.988 40.8657 111.724 40.2059C111.169 39.9163 110.641 39.6962 110.16 39.5098C108.992 39.057 107.874 38.7795 106.833 38.6332C104.407 38.2922 102.378 38.6229 101.36 38.8266C100.74 39.201 100.321 39.7663 100.194 40.3992C98.2273 39.2173 96.9326 37.3176 94.6902 36.4289V33.4254C94.6902 29.6062 93.1185 26.3663 89.9526 23.7059C86.7866 21.0455 82.9666 19.7227 78.4995 19.7227ZM78.4995 26.3098C80.8495 26.3098 82.8236 26.9934 84.433 28.3465C86.0424 29.6997 86.8555 31.3594 86.8555 33.3352V34.1344C85.7023 33.9158 84.3385 33.7224 82.7618 33.5672C81.1851 33.4121 79.7617 33.3352 78.4995 33.3352C77.2373 33.3352 75.814 33.4121 74.2372 33.5672C72.6606 33.7224 71.2968 33.9158 70.1436 34.1344V33.3609C70.1436 31.378 70.9567 29.7043 72.566 28.3465C74.1755 26.9885 76.1495 26.3098 78.4995 26.3098ZM78.4689 39.9352C87.0275 39.9352 94.3432 42.4825 100.409 47.5793C106.475 52.6762 109.501 58.8154 109.501 66V106.76C109.501 107.183 109.292 107.581 108.872 107.933C108.453 108.286 107.996 108.462 107.492 108.462H96.0547C96.7278 107.648 97.4039 106.799 97.4039 105.729V92.5934C97.4039 89.8084 94.7369 87.566 91.4244 87.566H65.5746C62.2622 87.566 59.5951 89.8084 59.5951 92.5934V105.729C59.5951 106.799 60.2713 107.648 60.9444 108.462H49.5067C49.0034 108.462 48.5462 108.286 48.1268 107.933C47.7075 107.581 47.4982 107.183 47.4982 106.76V65.9871C47.4982 58.8009 50.5147 52.6596 56.5594 47.5664C62.6042 42.4733 69.9103 39.9352 78.4689 39.9352ZM105.883 43.4285C106.45 43.5082 107.067 43.6584 107.738 43.9184C108.015 44.026 108.333 44.1662 108.673 44.3438C109.442 44.7453 110.369 45.3627 111.387 46.3418C112.205 47.1288 113.061 48.1393 113.932 49.4355C115.427 51.6615 116.857 54.5891 118.056 58.2785C119.132 61.5882 119.964 65.3202 120.509 69.3129C121.04 73.1962 121.269 77.1622 121.215 80.9789C121.158 84.9478 120.8 88.5939 120.203 91.7426C119.523 95.3254 118.591 98.0419 117.596 99.9926C117.511 100.16 117.436 100.212 117.351 100.366V66C117.351 59.3421 115.23 53.4082 111.003 48.198C109.31 46.111 106.554 45.1538 104.472 43.4801C104.968 43.4562 105.291 43.3454 105.883 43.4285ZM60.699 67.5984C59.6157 67.5984 58.6795 67.9222 57.8933 68.5652C57.107 69.2084 56.7127 69.963 56.7127 70.8469C56.7127 71.7512 57.108 72.5407 57.8779 73.193C58.6478 73.8453 59.5678 74.1598 60.653 74.1598H90.4278C91.015 74.1598 91.4916 74.3194 91.8691 74.6367C92.2464 74.954 92.4363 75.3677 92.4363 75.8613V80.734C92.4363 81.6671 92.8229 82.4402 93.5862 83.0543C94.3495 83.6684 95.2657 83.9824 96.3307 83.9824C97.3957 83.9824 98.3196 83.6712 99.1058 83.0543C99.8921 82.4375 100.286 81.6583 100.286 80.7211V75.8613C100.286 73.5656 99.3264 71.6137 97.4039 70.009C95.4815 68.4043 93.1605 67.5984 90.4432 67.5984H60.699Z" fill="#6C3CF5"/>
</g>
<defs>
<clipPath id="clip0_28_34">
<rect width="157" height="132" fill="white"/>
</clipPath>
</defs>
</svg>
