<?xml version="1.0" standalone="no"?>
<!DOCTYPE svg PUBLIC "-//W3C//DTD SVG 20010904//EN"
 "http://www.w3.org/TR/2001/REC-SVG-20010904/DTD/svg10.dtd">
<svg version="1.0" xmlns="http://www.w3.org/2000/svg"
 width="500.000000pt" height="500.000000pt" viewBox="0 0 500.000000 500.000000"
 preserveAspectRatio="xMidYMid meet">

<g transform="translate(0.000000,500.000000) scale(0.100000,-0.100000)"
fill="#000000" stroke="none">
<path d="M2325 4994 c-119 -12 -292 -38 -385 -59 -256 -57 -554 -182 -790
-333 -200 -127 -448 -349 -593 -532 -443 -556 -629 -1242 -527 -1938 64 -435
245 -848 527 -1202 145 -183 393 -405 593 -532 226 -144 526 -272 769 -329
202 -47 346 -63 581 -63 302 0 519 34 773 119 380 127 709 328 982 599 375
374 614 829 706 1345 62 351 44 730 -51 1086 -180 677 -656 1258 -1290 1576
-349 175 -677 256 -1070 263 -102 2 -203 2 -225 0z m-899 -989 c71 -13 230
-58 242 -69 1 -2 -9 -34 -23 -72 -14 -38 -28 -74 -30 -81 -3 -8 -31 -3 -92 17
-128 41 -211 53 -327 48 -116 -6 -174 -27 -228 -80 -78 -78 -79 -237 -2 -326
42 -49 112 -86 321 -170 179 -72 292 -138 337 -197 99 -130 113 -319 33 -468
-53 -100 -149 -169 -297 -213 l-74 -22 54 -27 c179 -89 260 -214 260 -401 0
-213 -113 -362 -335 -441 -78 -27 -85 -28 -295 -28 -222 0 -281 7 -387 47
l-53 19 0 95 c0 52 4 94 8 94 5 0 41 -11 82 -25 276 -94 585 -79 703 33 87 82
101 238 31 345 -37 56 -127 109 -303 178 -212 83 -303 132 -373 200 -95 93
-134 203 -126 360 3 72 9 97 36 151 53 107 152 184 290 224 l75 21 -45 31
c-71 48 -118 102 -152 172 -29 62 -31 71 -31 185 0 111 2 124 28 176 31 64
112 146 176 179 115 58 315 76 497 45z m2944 -780 l0 -85 105 0 105 0 0 -40 0
-40 -105 0 -106 0 3 -246 3 -246 34 -30 c32 -28 38 -30 102 -26 l69 4 0 -42
c0 -35 -4 -43 -22 -48 -42 -11 -158 -6 -191 8 -42 17 -83 66 -97 114 -5 21
-10 142 -10 275 l0 237 -50 0 c-48 0 -50 1 -50 28 0 23 8 30 50 49 48 21 49
22 71 97 22 75 22 76 56 76 l33 0 0 -85z m-2201 -91 c38 -15 84 -57 93 -86 3
-8 17 1 36 24 86 97 277 116 369 35 72 -64 77 -87 81 -399 l4 -278 -55 0 -55
0 -4 263 c-3 224 -6 267 -21 297 -24 49 -63 70 -131 70 -104 0 -165 -47 -185
-140 -6 -28 -11 -150 -11 -270 l0 -220 -55 0 -55 0 -1 258 c0 172 -4 268 -12
292 -18 52 -67 80 -139 80 -79 0 -130 -27 -160 -83 -22 -40 -23 -55 -26 -294
l-3 -253 -55 0 -54 0 0 355 0 355 44 0 45 0 7 -46 7 -46 36 35 c63 60 114 79
203 72 31 -3 75 -12 97 -21z m1157 14 c51 -10 66 -19 112 -64 l52 -53 0 -760
0 -761 -55 0 -55 0 0 42 0 42 -27 -27 c-42 -39 -94 -57 -171 -57 -93 0 -164
35 -209 103 -47 70 -58 117 -57 242 0 134 22 199 86 262 50 49 110 73 183 73
66 0 110 -15 158 -52 l37 -29 0 207 0 206 -37 -32 c-59 -52 -108 -70 -196 -70
-86 0 -136 16 -180 58 -26 25 -57 104 -57 146 0 44 23 99 56 136 51 57 121 80
282 93 l132 11 0 35 c0 59 -19 108 -51 135 -50 42 -170 35 -290 -18 -12 -5
-19 3 -29 34 -15 47 -13 51 50 74 91 34 178 42 266 24z m790 0 c3 -4 2 -27 -2
-53 l-7 -47 -43 7 c-87 13 -171 -33 -217 -119 -21 -38 -22 -57 -25 -273 l-3
-233 -55 0 -54 0 0 355 0 355 44 0 c42 0 44 -1 50 -37 3 -21 6 -51 6 -67 l0
-29 29 40 c55 76 133 115 218 110 29 -2 56 -6 59 -9z m-2246 -893 l0 -75 95 0
95 0 0 -40 0 -40 -95 0 -95 0 0 -215 c0 -239 5 -262 60 -285 19 -8 48 -10 80
-6 l50 7 0 -39 c0 -46 -11 -52 -103 -52 -105 0 -166 46 -186 140 -6 28 -11
141 -11 250 l0 200 -45 0 c-42 0 -45 2 -45 26 0 21 8 29 48 45 47 20 48 21 67
90 19 68 20 69 52 69 l33 0 0 -75z m420 -315 c0 -270 5 -296 62 -326 46 -25
143 -24 193 2 76 40 95 118 95 387 l0 177 50 0 50 0 0 -330 0 -330 -44 0 -44
0 -7 45 -6 46 -21 -27 c-75 -95 -300 -100 -380 -9 -45 51 -51 86 -56 337 -2
131 -2 244 2 253 4 11 20 15 56 15 l50 0 0 -240z m1485 57 c38 -100 84 -225
102 -277 28 -82 33 -91 41 -70 4 14 48 139 98 277 l89 253 53 0 c28 0 52 -3
52 -7 0 -13 -286 -766 -305 -803 -58 -114 -152 -166 -260 -143 -37 8 -40 12
-43 45 l-3 36 70 4 c64 3 74 7 104 37 20 18 46 61 61 99 l26 68 -130 324 c-71
178 -130 328 -130 332 0 5 24 8 53 8 l52 0 70 -183z"/>
<path d="M936 3024 c-70 -22 -123 -61 -154 -113 -23 -40 -27 -57 -27 -127 0
-66 5 -89 25 -128 14 -27 36 -57 50 -67 67 -49 366 -71 484 -35 81 24 132 59
166 112 52 82 49 218 -5 282 -60 72 -398 119 -539 76z"/>
<path d="M3210 2770 c-36 -4 -82 -15 -103 -23 -77 -33 -103 -138 -48 -199 24
-28 36 -32 90 -36 145 -10 231 76 231 233 l0 35 -52 -1 c-29 -1 -82 -5 -118
-9z"/>
<path d="M3157 2100 c-54 -10 -104 -62 -124 -129 -24 -83 -15 -232 17 -290 34
-62 79 -86 156 -85 68 1 114 21 148 67 19 25 21 44 24 170 3 133 2 145 -20
186 -35 66 -111 97 -201 81z"/>
</g>
</svg>
