<svg width="113" height="97" viewBox="0 0 113 97" fill="none" xmlns="http://www.w3.org/2000/svg">
<path d="M108 76.0281V46.4935C108 43.6492 107.997 42.2263 107.579 40.9023C107.208 39.7296 106.6 38.6195 105.776 37.6164C104.847 36.4844 103.556 35.5458 100.966 33.6727L70.0664 11.3142C65.2601 7.83646 62.857 6.09845 60.1526 5.43707C57.7695 4.85431 55.2292 4.85431 52.8461 5.43707C50.1436 6.09798 47.7437 7.83433 42.9449 11.3068L12.0347 33.6727C9.446 35.5458 8.15463 36.4844 7.22544 37.6164C6.40202 38.6195 5.78892 39.7296 5.41824 40.9023C5 42.2263 5 43.6492 5 46.4935V76.0281C5 80.9884 5 83.4681 5.98004 85.425C7.28679 88.0335 9.79156 90.1086 12.9463 91.1892C15.3124 92 18.3118 92 24.3108 92C30.3099 92 33.3126 92 35.6787 91.1892C38.8334 90.1086 41.3376 88.034 42.6443 85.425C43.6244 83.4686 43.625 80.9884 43.625 76.0275V70.7041C43.625 64.8238 49.3891 60.0572 56.5 60.0572C63.6109 60.0572 69.375 64.8238 69.375 70.7041V76.0275C69.375 80.9884 69.375 83.4686 70.3548 85.425C71.6616 88.034 74.1664 90.1086 77.3214 91.1892C79.6872 92 82.6871 92 88.6856 92C94.6847 92 97.6878 92 100.054 91.1892C103.209 90.1086 105.713 88.0335 107.02 85.425C107.999 83.4681 108 80.9884 108 76.0281Z" stroke="#6C3CF5" stroke-width="9" stroke-linecap="round" stroke-linejoin="round"/>
</svg>
