<svg width="125" height="83" viewBox="0 0 125 83" fill="none" xmlns="http://www.w3.org/2000/svg">
<path d="M14.7059 5.41221e-05C8.4559 5.41221e-05 0 3.6606 0 9.1212V73.3636C0 78.8242 4.77943 83 11.0294 83H113.971C120.221 83 125 78.8242 125 73.3636V9.1212C125 3.6606 123.897 5.41221e-05 117.647 5.41221e-05H14.7059ZM11.0294 5.90907H113.971C115.826 5.90907 117.16 6.81781 117.538 8.25308L73.1616 47.0244C67.2793 52.1638 58.0881 52.1638 52.2058 47.0244L7.54076 8.00056C8.00246 6.71235 9.28584 5.90907 11.0294 5.90907ZM88.6023 12.609C88.7863 12.609 88.078 12.7076 86.4778 12.9046C85.5817 12.9755 84.878 13.0229 84.3659 13.0466C84.2379 13.0781 84.1738 13.2081 84.1738 13.4367C84.1738 14.0357 84.1896 14.938 84.2216 16.1438C84.2536 17.3496 84.2698 18.2558 84.2698 18.8626C84.2698 19.0676 84.2336 19.1701 84.1616 19.1701C84.1136 19.1701 84.0337 19.1072 83.9216 18.9811C83.2496 18.2245 82.3093 17.8459 81.1012 17.8459C79.389 17.8459 78.0289 18.4373 77.0208 19.6194C76.0687 20.7306 75.5927 22.1451 75.5927 23.8632C75.5927 25.5576 76.0766 26.9604 77.0447 28.0716C78.0608 29.238 79.413 29.8212 81.1012 29.8212C82.3973 29.8212 83.4775 29.4038 84.3416 28.5684C84.4136 28.4975 84.4736 28.4501 84.5216 28.4265C84.5776 28.4895 84.6096 28.5524 84.6176 28.6155L84.6659 29.5142C84.7299 29.6797 84.9777 29.7624 85.4097 29.7624C87.2419 29.7624 88.3021 29.7426 88.5902 29.7032C88.7102 29.6874 88.7701 29.6362 88.7701 29.5495C88.7701 29.5101 88.7622 29.4153 88.7462 29.2656C88.5622 27.8864 88.4702 25.5696 88.4702 22.3147C88.4702 20.3445 88.5022 18.5868 88.5662 17.0421C88.6143 15.6787 88.6821 14.5597 88.7701 13.6849C88.818 13.1665 88.8482 12.8912 88.8603 12.8572C88.8457 12.6946 88.7622 12.609 88.6023 12.609ZM49.1897 12.9281C48.5496 12.9281 47.5852 12.9755 46.297 13.0701C45.0169 13.1647 44.057 13.212 43.4169 13.212C42.8169 13.212 41.9166 13.2004 40.7164 13.1767C39.5243 13.1531 38.6323 13.1411 38.0403 13.1411C37.7922 13.1411 37.6723 13.2397 37.6803 13.4367L37.6921 13.5786C37.7001 13.7599 37.7762 15.068 37.9203 17.5032C38.0163 19.0794 38.0642 20.3879 38.0642 21.4282C38.0642 22.303 38.0321 23.6188 37.9681 25.3763C37.9121 27.1259 37.8842 28.4382 37.8842 29.313C37.8842 29.5022 38 29.6245 38.232 29.6796C38.6641 29.7821 39.6285 29.8333 41.1246 29.8333C41.9727 29.8333 42.3288 29.8372 42.1928 29.8451C42.6968 29.8136 42.9488 29.6952 42.9488 29.4903C42.9488 29.6321 42.9088 29.045 42.8288 27.7289C42.7328 26.2709 42.6849 24.9823 42.6849 23.8632C42.6849 23.5873 42.8889 23.418 43.297 23.355C43.369 23.3471 43.685 23.3432 44.2451 23.3432C45.9813 23.3432 47.2772 23.3824 48.1333 23.4613C48.6435 23.5075 48.8996 23.5342 48.9085 23.5416C49.0573 23.5357 49.16 23.4672 49.2136 23.3315C49.3016 23.1344 49.3453 22.4328 49.3453 21.227C49.3453 19.84 49.2133 19.1465 48.9493 19.1465C48.3972 19.1465 47.5694 19.178 46.4652 19.241C45.3691 19.2962 44.545 19.3238 43.993 19.3238C43.6649 19.3238 43.4209 19.304 43.2609 19.2646C42.8768 19.1621 42.6849 18.7366 42.6849 17.9879C42.6849 17.3653 42.8327 16.9871 43.1287 16.8531C43.2567 16.7979 43.7048 16.7704 44.4729 16.7704C45.081 16.7704 45.9929 16.8216 47.2091 16.9241C48.4332 17.0265 49.3456 17.0778 49.9457 17.0778C50.1057 17.0778 50.1856 17.0343 50.1856 16.9476C50.1856 16.7112 50.1456 16.3761 50.0656 15.9426C49.9776 15.4461 49.9256 15.1115 49.9096 14.9381C49.8776 14.2603 49.8617 13.7521 49.8617 13.4132C49.8137 13.0901 49.5897 12.9281 49.1897 12.9281ZM48.9085 23.5416C48.9018 23.5419 48.8962 23.544 48.8893 23.544C48.906 23.544 48.9102 23.5431 48.9085 23.5416ZM7.35294 16.7865L35.3672 41.0667L7.35294 65.5529V16.7865ZM117.647 17.1052V65.1663L90.0331 41.0401L117.647 17.1052ZM56.9904 17.6687C55.1662 17.6687 53.7021 18.2678 52.5979 19.4657C51.5258 20.6242 50.9899 22.1097 50.9899 23.9224C50.9899 25.7823 51.5899 27.2678 52.7901 28.379C53.9582 29.4745 55.4944 30.0223 57.3986 30.0223C59.4548 30.0223 60.971 29.5059 61.9471 28.4735C62.0671 28.3474 62.1271 28.257 62.1271 28.2018C62.1271 28.0048 61.9272 27.5439 61.5272 26.8188C61.1351 26.0938 60.8549 25.6915 60.6869 25.6127L59.7748 26.1805C59.0547 26.5588 58.3385 26.7479 57.6264 26.7479C57.0343 26.7479 56.5063 26.6372 56.0423 26.4165C55.4742 26.1486 55.1344 25.7588 55.0224 25.2465C56.8946 25.1046 58.3025 24.9823 59.2466 24.8799C60.8148 24.7223 61.6431 24.6357 61.7311 24.6199C62.2511 24.5096 62.511 24.0565 62.511 23.2605C62.511 21.7395 61.975 20.4271 60.9029 19.3238C59.8308 18.2204 58.5266 17.6687 56.9904 17.6687ZM69.304 17.6687C67.4798 17.6687 66.0156 18.2678 64.9115 19.4657C63.8394 20.6242 63.3031 22.1097 63.3031 23.9224C63.3031 25.7823 63.9031 27.2678 65.1032 28.379C66.2714 29.4745 67.8076 30.0223 69.7118 30.0223C71.768 30.0223 73.2846 29.5059 74.2607 28.4735C74.3807 28.3474 74.4407 28.257 74.4407 28.2018C74.4407 28.0048 74.2404 27.5439 73.8404 26.8188C73.4483 26.0938 73.1685 25.6915 73.0005 25.6127L72.0884 26.1805C71.3683 26.5588 70.6521 26.7479 69.94 26.7479C69.3479 26.7479 68.8199 26.6372 68.3558 26.4165C67.7878 26.1486 67.4476 25.7588 67.3356 25.2465C69.2078 25.1046 70.6161 24.9823 71.5602 24.8799C73.1284 24.7223 73.9566 24.6357 74.0447 24.6199C74.5647 24.5096 74.8246 24.0565 74.8246 23.2605C74.8246 21.7395 74.2886 20.4271 73.2165 19.3238C72.1444 18.2204 70.8402 17.6687 69.304 17.6687ZM56.5222 20.695C57.0103 20.695 57.4304 20.8802 57.7825 21.2506C58.1345 21.621 58.3106 22.0508 58.3106 22.5394C58.3106 22.6261 58.1786 22.689 57.9146 22.7284C56.6665 22.9097 55.7462 23.0001 55.1541 23.0001C54.9301 23.0001 54.8181 22.8938 54.8181 22.681C54.8181 22.1608 54.9701 21.7077 55.2741 21.3215C55.6021 20.9038 56.0182 20.695 56.5222 20.695ZM68.8358 20.695C69.3239 20.695 69.744 20.8802 70.0961 21.2506C70.4481 21.621 70.6242 22.0508 70.6242 22.5394C70.6242 22.6261 70.4922 22.689 70.2282 22.7284C68.98 22.9097 68.0598 23.0001 67.4677 23.0001C67.2437 23.0001 67.1317 22.8938 67.1317 22.681C67.1317 22.1608 67.2837 21.7077 67.5877 21.3215C67.9157 20.9038 68.3317 20.695 68.8358 20.695ZM82.0854 21.4282C82.7094 21.4282 83.2416 21.6646 83.6817 22.1375C84.1217 22.6025 84.3416 23.1461 84.3416 23.7687C84.3416 24.407 84.1259 24.9626 83.6938 25.4355C83.2618 25.9084 82.7254 26.1448 82.0854 26.1448C81.4453 26.1448 80.9252 25.9084 80.5251 25.4355C80.1331 24.9942 79.9374 24.4545 79.9374 23.8161C79.9374 23.162 80.1293 22.6025 80.5134 22.1375C80.9054 21.6646 81.4293 21.4282 82.0854 21.4282ZM84.8121 45.5654L117.553 74.171C117.197 75.6411 115.852 76.5758 113.971 76.5758H11.0294C9.27812 76.5758 7.9913 75.7653 7.53488 74.467L40.5863 45.5901L47.0589 51.1999C51.103 55.0545 56.9853 56.9819 62.5 56.9819C68.0147 56.9819 73.897 55.0544 77.9411 51.5211L84.8121 45.5654ZM42.6954 55.9248C42.1949 55.9248 41.5449 55.9595 40.7455 56.0295C39.6098 56.1274 38.9598 56.1801 38.7955 56.1871C38.5639 56.2011 38.4481 56.2638 38.4481 56.3757L38.459 56.491C38.6832 58.7007 38.7955 61.2989 38.7955 64.2848C38.7955 67.4107 38.7206 69.5294 38.5712 70.6413C38.5562 70.7252 38.5488 70.7779 38.5488 70.7989C38.5488 70.9597 38.7839 71.04 39.2546 71.04C41.257 71.04 42.3218 71.0224 42.4488 70.9875C42.5385 70.9595 42.6133 70.8161 42.6731 70.5573C42.7403 70.2986 42.8113 70.1692 42.886 70.1692C42.9234 70.1692 42.9682 70.1903 43.0205 70.2323C43.7079 70.8337 44.612 71.1345 45.7328 71.1345C47.2719 71.1345 48.5195 70.6099 49.4759 69.561C50.3725 68.575 50.8209 67.3477 50.8209 65.8791C50.8209 64.3057 50.3947 63.0364 49.543 62.0714C48.624 61.0295 47.3463 60.5085 45.71 60.5085C44.6192 60.5085 43.7376 60.8441 43.0652 61.5154C43.0129 61.5714 42.9568 61.5993 42.897 61.5993C42.7774 61.5993 42.7178 61.491 42.7178 61.2743C42.7178 60.0785 42.7365 59.1344 42.7739 58.4421C42.7813 58.2673 42.8075 57.9037 42.8523 57.3513C42.8897 56.9037 42.9084 56.5437 42.9084 56.271C42.9084 56.0402 42.8374 55.9248 42.6954 55.9248ZM79.4892 55.9667C79.2277 55.9667 78.869 55.9983 78.4132 56.0612C77.8977 56.1312 77.5355 56.1731 77.3263 56.1871C76.5343 56.2011 75.9401 56.2079 75.5441 56.2079C75.3424 56.2149 75.2414 56.3024 75.2414 56.4702C75.2414 57.3233 75.2753 58.6066 75.3426 60.3199C75.4098 62.0331 75.4433 63.3196 75.4433 64.1798V70.5993C75.4433 70.851 75.5443 70.9945 75.746 71.0294C75.8955 71.0574 76.4222 71.0714 77.3263 71.0714C78.3723 71.0714 78.9626 71.0646 79.0971 71.0506C79.3137 71.0296 79.4217 70.9142 79.4217 70.7044C79.4217 70.4736 79.4182 70.1204 79.4107 69.6449C79.4033 69.1694 79.3994 68.823 79.3994 68.6062C80.7069 68.6622 81.3794 68.7113 81.4168 68.7533C82.0519 69.6274 82.519 70.2986 82.8178 70.7671C82.9374 70.9489 83.378 71.04 84.1401 71.04C86.12 71.04 87.1103 70.9457 87.1103 70.7569C87.1103 70.715 86.7625 70.2603 86.0677 69.3932C85.3728 68.5191 85.0254 68.0225 85.0254 67.9036C85.0254 67.8267 85.1003 67.7532 85.2497 67.6832C86.8711 66.879 87.6816 65.7044 87.6816 64.159C87.6816 62.9632 87.2594 62.0539 86.4151 61.4315C85.6455 60.8721 84.6073 60.5924 83.2997 60.5924C81.91 60.5924 80.7295 61.0646 79.7582 62.0087C79.6461 62.1206 79.5564 62.1973 79.4892 62.2392C79.4369 62.2322 79.4107 62.1308 79.4107 61.935C79.4107 61.1098 79.4443 59.9456 79.5115 58.4421C79.519 58.2463 79.549 57.8827 79.6013 57.3513C79.6461 56.8967 79.6684 56.5367 79.6684 56.271C79.6684 56.0682 79.6087 55.9667 79.4892 55.9667ZM70.8148 60.414C69.1785 60.414 67.8221 60.9386 66.7462 61.9875C65.6778 63.0295 65.1436 64.3163 65.1436 65.8478C65.1436 67.3932 65.6778 68.6833 66.7462 69.7182C67.8146 70.7532 69.1711 71.2706 70.8148 71.2706C71.2556 71.2706 71.8346 71.1975 72.5519 71.0506C73.4783 70.8618 73.9415 70.6345 73.9415 70.3687C73.9415 70.103 73.8558 69.5645 73.6839 68.7533C73.4822 67.8652 73.3176 67.4213 73.1906 67.4213C73.213 67.4213 73.0189 67.5016 72.6079 67.6624C72.197 67.8163 71.827 67.893 71.4983 67.893C70.8034 67.893 70.2392 67.7112 69.8059 67.3476C69.3725 66.977 69.1562 66.47 69.1562 65.8266C69.1562 65.2042 69.3538 64.708 69.7498 64.3374C70.1458 63.9598 70.6764 63.7708 71.3414 63.7708C71.6179 63.7708 71.9766 63.8267 72.4174 63.9386C72.8657 64.0505 73.0934 64.1064 73.1008 64.1064C73.1681 64.1064 73.2316 64.0329 73.2914 63.8861C73.3586 63.7392 73.4971 63.3129 73.7063 62.6066C73.9304 61.8724 74.0423 61.4597 74.0423 61.3688C74.0423 61.2779 73.9452 61.1836 73.751 61.0857C72.9067 60.6381 71.9281 60.414 70.8148 60.414ZM57.108 60.5924C55.4195 60.5924 54.0896 61.103 53.1183 62.124C52.1843 63.11 51.7172 64.4108 51.7172 66.0262C51.7172 67.4248 52.1695 68.6273 53.0736 69.6343C54.0299 70.7112 55.2366 71.2498 56.6936 71.2498C57.6499 71.2498 58.5463 70.8547 59.3831 70.0645C59.4802 69.9736 59.5586 69.914 59.6184 69.8861C59.6856 69.8931 59.7417 70.0992 59.7866 70.5048C59.8389 70.9034 59.9359 71.1028 60.0779 71.1028C61.2734 71.1028 62.3346 71.0716 63.2611 71.0087C63.5226 70.9877 63.6532 70.8371 63.6532 70.5573C63.6532 70.0259 63.6197 69.2288 63.5524 68.1659C63.4852 67.103 63.4513 66.3023 63.4513 65.7639C63.4513 64.3513 63.571 63.0121 63.8101 61.7464C63.8325 61.6275 63.8438 61.554 63.8438 61.526C63.8438 61.4561 63.7876 61.4001 63.6756 61.3582C63.3543 61.2603 62.8237 61.1416 62.084 61.0018C61.3069 60.8549 60.7802 60.7814 60.5037 60.7814C60.3842 60.7814 60.2797 60.9528 60.1901 61.2954C60.1079 61.6311 60.033 61.7989 59.9658 61.7989C59.9433 61.7989 59.9172 61.7813 59.8873 61.7464C59.2074 60.9771 58.2811 60.5924 57.108 60.5924ZM81.6972 63.5716C82.7208 63.5716 83.2323 63.9947 83.2323 64.8409C83.2323 65.8478 82.474 66.3512 80.9573 66.3512C80.2325 66.3512 79.8029 66.3093 79.6684 66.2254C79.4965 66.1065 79.4107 65.7569 79.4107 65.1765C79.4107 64.7709 79.6872 64.3965 80.2401 64.0539C80.7556 63.7322 81.2414 63.5716 81.6972 63.5716ZM44.7015 63.6869C45.3142 63.6869 45.8109 63.8898 46.1919 64.2954C46.573 64.694 46.7636 65.1834 46.7636 65.7639C46.7636 66.3723 46.5882 66.8689 46.237 67.2535C45.8635 67.6661 45.3589 67.8722 44.7239 67.8722C44.0813 67.8722 43.5733 67.6729 43.1997 67.2743C42.8485 66.8966 42.6731 66.4 42.6731 65.7846C42.6731 65.1902 42.8524 64.694 43.2111 64.2954C43.5772 63.8898 44.0739 63.6869 44.7015 63.6869ZM57.6797 63.7708C58.3223 63.7708 58.8416 63.9666 59.2376 64.3582C59.6411 64.7428 59.8426 65.2322 59.8426 65.8266C59.8426 66.428 59.6411 66.9246 59.2376 67.3162C58.8341 67.7008 58.3148 67.893 57.6797 67.893C57.082 67.893 56.574 67.6904 56.1556 67.2848C55.7372 66.8792 55.5278 66.393 55.5278 65.8266C55.5278 65.2252 55.7259 64.7322 56.1219 64.3476C56.5178 63.963 57.0372 63.7708 57.6797 63.7708Z" fill="#6C3CF5"/>
</svg>
